HIERARCHY
ROOT HipCenter
{
    OFFSET 0.0 0.0 -0.0
    CHANNELS 6 Xposition Yposition Zposition Zrotation Xrotation Yrotation
    JOINT Spine
    {
        OFFSET 0.0 10.526025772094727 0.0
        CHANNELS 3 Zrotation Xrotation Yrotation
        JOINT ShoulderCenter
        {
            OFFSET 0.0 31.07941436767578 0.0
            CHANNELS 3 Zrotation Xrotation Yrotation
            JOINT LeftShoulder
            {
                OFFSET 19.429794311523438 0.0 0.0
                CHANNELS 3 Zrotation Xrotation Yrotation
                JOINT LeftElbow
                {
                    OFFSET 26.162879943847656 0.0 0.0
                    CHANNELS 3 Zrotation Xrotation Yrotation
                    JOINT LeftWrist
                    {
                        OFFSET 30.868568420410156 0.0 0.0
                        CHANNELS 3 Zrotation Xrotation Yrotation
                        JOINT LeftHand
                        {
                            OFFSET 3.130514144897461 0.0 0.0
                            CHANNELS 3 Zrotation Xrotation Yrotation
                            End Site
                            {
                                OFFSET 1.2522056102752686 0.0 0.0
                            }
                        }
                    }
                }
            }
            JOINT RightShoulder
            {
                OFFSET -19.429794311523438 0.0 0.0
                CHANNELS 3 Zrotation Xrotation Yrotation
                JOINT RightElbow
                {
                    OFFSET -26.162879943847656 0.0 0.0
                    CHANNELS 3 Zrotation Xrotation Yrotation
                    JOINT RightWrist
                    {
                        OFFSET -30.868568420410156 0.0 0.0
                        CHANNELS 3 Zrotation Xrotation Yrotation
                        JOINT RightHand
                        {
                            OFFSET -3.130514144897461 0.0 0.0
                            CHANNELS 3 Zrotation Xrotation Yrotation
                            End Site
                            {
                                OFFSET -1.2522056102752686 0.0 0.0
                            }
                        }
                    }
                }
            }
            End Site
            {
                OFFSET 0.0 12.43176555633545 0.0
            }
        }
    }
    JOINT LeftHip
    {
        OFFSET 14.161975860595703 0.0 0.0
        CHANNELS 3 Zrotation Xrotation Yrotation
        JOINT LeftKnee
        {
            OFFSET 0.0 -41.68095397949219 0.0
            CHANNELS 3 Zrotation Xrotation Yrotation
            JOINT LeftAnkle
            {
                OFFSET 0.0 -43.66956329345703 0.0
                CHANNELS 3 Zrotation Xrotation Yrotation
                JOINT LeftFoot
                {
                    OFFSET 0.0 -11.315187454223633 0.0
                    CHANNELS 3 Zrotation Xrotation Yrotation
                    End Site
                    {
                        OFFSET 0.0 0.0 4.526074409484863
                    }
                }
            }
        }
    }
    JOINT RightHip
    {
        OFFSET -14.161975860595703 0.0 0.0
        CHANNELS 3 Zrotation Xrotation Yrotation
        JOINT RightKnee
        {
            OFFSET 0.0 -41.68095397949219 0.0
            CHANNELS 3 Zrotation Xrotation Yrotation
            JOINT RightAnkle
            {
                OFFSET 0.0 -43.66956329345703 0.0
                CHANNELS 3 Zrotation Xrotation Yrotation
                JOINT RightFoot
                {
                    OFFSET 0.0 -11.315187454223633 0.0
                    CHANNELS 3 Zrotation Xrotation Yrotation
                    End Site
                    {
                        OFFSET 0.0 0.0 4.526074409484863
                    }
                }
            }
        }
    }
}
MOTION
Frames: 6
Frame Time: 0.03333333333333333
-3.0 5.200000286102295 33.29999923706055 5.492325055497767 0.5483667066696379 11.518494282622749 1.4563070767723123 -4.238169001044845 0.6387790309832628 5.352569845111121e-07 4.1552380391143585e-08 15.979552893434796 89.32325665503936 -7.812092036877458 161.47758049823054 1.6316471180954996e-06 1.6499868389967987e-06 53.76406143028487 -2.754758769238289e-06 11.552733559164697 25.518531336115355 -6.3611093629270335e-15 3.1805546814635168e-15 -3.1805546814635168e-15 -132.08961451107388 11.249354584292183 133.20606703748516 8.273773430877458e-07 2.070836662753828e-06 -140.3933731685009 179.99999377609754 -71.06392344197917 157.2418745115571 -1.1131941385122309e-14 0.0 0.0 -0.8073969033954813 -6.487393834632003 -21.20382020754378 -6.0964979609847605 23.9418976983406 -24.39381979459099 86.62509850215717 -47.563167310339786 138.21578803378804 -3.1805546814635164e-15 -6.361109362927033e-15 -1.5902773407317584e-15 -27.033003103731907 -1.0326955225490935 41.952207455814694 -0.05472862952830083 0.03820934795436065 0.07924839934163384 -64.63984814729167 -44.68662942481899 -138.92592696737717 6.3611093629270335e-15 -4.770832022195275e-15 6.3611093629270335e-15
-3.0 5.200000286102295 33.29999923706055 5.4403327092323615 6.220223562453093e-08 11.97329123287342 1.4836679177706737 -3.3279457120524607 0.493844349734211 -2.0510398830924513e-07 4.0600235137589165e-08 15.625829312651929 89.52473640178394 -7.622864247984874 161.6722071243877 -1.0218534155542543e-06 7.44310276633827e-07 53.206116591124626 -7.012496047695604e-07 9.173622106717822 26.871467476405098 3.531125038440127e-31 6.3611093629270335e-15 -6.3611093629270335e-15 -131.8457718233978 11.599896410020595 132.5476809105408 -7.19218710792667e-07 -4.082318422944775e-06 -140.00585530233633 -179.99999351184735 -67.17053646669258 159.13944869147073 -1.5902773407317582e-15 8.827812596100317e-32 -6.361109362927033e-15 -0.5867562584826321 -6.117142783326759 -20.925326950265234 -5.941380264654675 24.128828730390573 -25.03979981465356 86.6171751880351 -47.68538061463598 138.6063255999954 3.1805546814635164e-15 -1.590277340731758e-15 6.361109362927033e-15 -27.04695882566915 -0.33252947250078346 42.06490469246083 -0.11501712141354815 -0.07564809203003878 -0.158122885059467 -64.50351291813851 -44.656485586741184 -138.97849280444044 0.0 0.0 0.0
-3.0 5.200000286102295 33.29999923706055 5.440332250444253 -0.5432121326531838 12.037640562517279 1.451894398710084 -2.581614667972953 0.376521931670671 -2.659044973899402e-07 2.8558453424745954e-07 15.476527728555414 89.72550218296468 -6.705858947831324 161.71143314187879 -2.155166555592696e-06 1.791084487818404e-06 52.73027678675604 3.481529159279064e-07 9.690099425537106 26.967687024634692 6.3611093629270335e-15 1.7655625192200634e-31 3.1805546814635168e-15 -131.9650374949778 11.8221214040427 132.24863232634357 -6.433685627675504e-07 1.8238713314662729e-06 -140.11918252160342 -179.99999475449144 -62.478397009772294 157.4037320533966 0.0 0.0 0.0 -0.450842146350214 -5.450550303373845 -21.174715361628238 -5.974942986485264 23.8505331533145 -24.758559774155344 86.42672810946051 -47.775855423471135 138.4456392174563 3.1805546814635164e-15 -1.590277340731758e-15 6.361109362927033e-15 -26.933706201133905 0.17013494518372524 42.24870335165552 -0.11501712141354815 -0.07564809203003878 -0.158122885059467 -63.693662419024434 -44.73428998082787 -138.1148902876881 3.1805546814635168e-15 1.5902773407317584e-15 3.1805546814635168e-15
-3.0 5.200000286102295 33.29999923706055 5.440331810050542 -0.5432121913758762 11.969778858737685 1.0963671962550328 -2.5060811142395503 0.34933177941377075 2.5459603010388755e-07 1.624623883740347e-08 16.44215613665622 90.36088828160838 -7.341037513918698 162.00061206087557 1.6203135161727942e-06 5.314115755467074e-07 52.27286636384403 1.4229290854017885e-06 13.538283085200641 27.58830081321332 -9.541664044390549e-15 0.0 0.0 -131.9655012469788 12.261900837002967 132.85483453386527 -2.9654562503578216e-06 -2.189956192584786e-06 -140.29552822683968 -179.9999978060639 -71.02340009456088 156.93195932772372 -1.5902773407317584e-15 0.0 0.0 -0.47321267523853244 -5.585795711733726 -20.125480143457366 -5.709150031370835 24.067272801224036 -24.955362462478767 86.40074231899113 -48.57100594082391 137.9855122880523 -4.7708320221952736e-15 -5.565970692561153e-15 -2.3173008064763334e-31 -26.78394069823139 -0.018139398693373186 41.27865421355333 0.05121626559101067 0.12138923610708308 0.25484987279643523 -63.574961915564124 -45.278687705443296 -137.82349251247766 3.1805546814635168e-15 -8.827812596100317e-32 -3.1805546814635168e-15
-3.0 5.200000286102295 33.29999923706055 4.899092906980869 -0.5436766574607536 11.951765643848086 1.844257522989618 -2.4741962441002814 0.35450284102437163 8.504451967788731e-07 -2.4345381661089784e-07 16.591774940836295 90.16551318698941 -6.69937303117215 161.99951059267545 2.9946039044046274e-07 4.819638388067111e-06 52.041648210995774 -2.9388842722113966e-06 12.498452129164145 26.449296127091305 6.3611093629270335e-15 -6.3611093629270335e-15 3.531125038440127e-31 -132.0533439365438 12.520266716524164 132.93418316164406 -8.453821136563965e-07 -2.2436777245100463e-06 -140.44559100375469 179.99999861448129 -66.8012779290454 158.74132136369346 -1.5902773407317582e-15 0.0 0.0 0.05758092342345732 -5.697549102820406 -20.112943806893828 -5.709150031370835 24.067272801224036 -24.955362462478767 86.40074231899113 -48.57100594082391 137.9855122880523 -4.7708320221952736e-15 -5.565970692561153e-15 -2.3173008064763334e-31 -26.40424603154423 0.03379084380905388 41.69760336807229 0.05919130308029956 -0.09638189308415578 -0.2023586820840749 -63.74821076629015 -45.23166932398188 -138.0240026056863 3.1805546814635168e-15 1.5902773407317584e-15 -3.1805546814635168e-15
-3.0 5.200000286102295 33.19999694824219 4.899092776831854 -2.630872972980507e-08 11.892393625337204 1.556076475469255 -2.9673104527881535 0.41580939307892995 2.8429580699357265e-08 -1.0819708288210094e-07 16.625095998880123 90.46946705116986 -6.3897345702638075 162.05586987869367 -1.7539572984593526e-07 -3.4956425065602914e-06 51.73480670995253 -7.691823482838565e-07 13.787875286048106 27.57557130784513 -9.54166404439055e-15 5.29668755766019e-31 -6.3611093629270335e-15 -131.88233961585377 12.599627610109327 132.88657273342966 -1.126349451419367e-06 -1.0650318764902345e-06 -140.44558385081055 179.99999705314278 -66.80128428569024 158.74140396156787 0.0 0.0 6.3611093629270335e-15 -0.0485270808803487 -6.229493637279398 -20.731145647787095 -6.009873944157361 23.998059945087903 -24.647930987224306 85.66503842730454 -48.17607447035272 137.16967231750576 1.5902773407317584e-15 -6.620859447075238e-32 -4.770832022195275e-15 -26.517260714709227 -0.46888550619913494 42.08671752952456 0.09158860749150136 0.0813698032698441 0.16851158963675195 -64.41148371644269 -44.92794778906721 -138.53975357192797 3.1805546814635168e-15 -6.3611093629270335e-15 6.3611093629270335e-15
